<?xml version="1.0" encoding="UTF-8"?>
<svg version="1.1" xmlns="http://www.w3.org/2000/svg" width="397" height="391">
<path d="M0 0 C131.01 0 262.02 0 397 0 C397 129.03 397 258.06 397 391 C265.99 391 134.98 391 0 391 C0 261.97 0 132.94 0 0 Z " fill="#EAE1F1" transform="translate(0,0)"/>
<path d="M0 0 C0 2.31 0 4.62 0 7 C2.31 7 4.62 7 7 7 C5.46901121 10.62077274 3.31585971 12.93090295 0.54550171 15.69500732 C0.09051855 16.15169934 -0.36446461 16.60839135 -0.83323514 17.07892251 C-2.35628073 18.60525765 -3.88635545 20.12434275 -5.41650391 21.64355469 C-6.51081065 22.7372972 -7.60467702 23.83148048 -8.69813538 24.92607117 C-11.66660087 27.89511071 -14.64119449 30.85794139 -17.61691713 33.81970501 C-20.72615993 36.91644932 -23.82974374 40.01885445 -26.93392944 43.1206665 C-32.81245611 48.99297582 -38.69606267 54.86016807 -44.58150613 60.72554421 C-51.28185957 67.40354662 -57.97653808 74.08722572 -64.67074323 80.77139044 C-78.44085205 94.52059148 -92.21808016 108.26263862 -106 122 C-104.35711076 125.48015323 -102.5007657 127.73689337 -99.75317383 130.45800781 C-98.87498489 131.33281799 -97.99679596 132.20762817 -97.09199524 133.10894775 C-96.13036566 134.05703228 -95.16871034 135.00509069 -94.20703125 135.953125 C-93.21723715 136.93664029 -92.22796203 137.92067811 -91.23918152 138.9052124 C-88.63380428 141.49729697 -86.02292934 144.08376597 -83.41040039 146.66864014 C-79.24622327 150.78971214 -75.08859785 154.91736256 -70.93445396 159.04854584 C-69.49297793 160.47992998 -68.048064 161.90777159 -66.60273743 163.33526611 C-61.03562589 168.86170609 -55.77480627 174.50943817 -50.72904015 180.51195145 C-41.72039282 191.22574097 -32.49294217 201.70662674 -22.9375 211.9375 C-22.22828022 212.69754711 -21.51906044 213.45759422 -20.78834915 214.24067307 C-3.1103842 233.03451298 12.2371483 248.02306023 39.02539062 249.03955078 C51.07551217 248.40344916 63.03726282 246.58207893 75 245 C75 269.75 75 294.5 75 320 C50.58 320 26.16 320 1 320 C2.03253906 309.57277344 3.06507813 299.14554687 4.12890625 288.40234375 C4.31782488 281.6993421 4.46708603 275.36888446 3.85205078 268.74560547 C3.73901308 267.5276896 3.73901308 267.5276896 3.6236918 266.28516936 C1.31868138 245.05934472 -10.78176526 231.27811914 -25.47265625 216.69140625 C-26.42560239 215.74521777 -26.42560239 215.74521777 -27.39779997 214.77991438 C-35.28512443 207.00774344 -43.45066104 199.56504844 -51.73635232 192.22178495 C-58.88509691 185.87209565 -65.82204259 179.30735577 -72.75420773 172.72313988 C-86.95658598 159.24240218 -101.38674737 146.03357438 -116 133 C-122.18824142 138.24263093 -128.22812081 143.64344087 -134.24365234 149.08276367 C-134.7913113 149.57776052 -135.33897026 150.07275738 -135.90322495 150.58275414 C-146.78923946 160.43554046 -157.48485 170.48418802 -168.11437035 180.61263561 C-174.85917789 187.03116505 -181.65128524 193.37468245 -188.60302734 199.5690918 C-224.30804923 229.8254332 -224.30804923 229.8254332 -240.75878906 271.74853516 C-240.8273207 272.46113833 -240.89585235 273.17374151 -240.9664607 273.90793872 C-242.20509314 289.31709966 -239.5624825 304.7306498 -238 320 C-262.75 320 -287.5 320 -313 320 C-313 295.25 -313 270.5 -313 245 C-298.26903687 246.4068103 -298.26903687 246.4068103 -283.24047852 247.84204102 C-276.90283667 247.98689396 -270.89728433 248.09347653 -264.63357544 247.50564575 C-263.48003259 247.39752684 -263.48003259 247.39752684 -262.30318584 247.28722371 C-232.02566423 244.00711191 -211.43771074 217.7300132 -191.90191653 196.67188611 C-185.43284173 189.71313038 -178.76913108 182.95335736 -172.09152395 176.19547898 C-160.19679856 164.14798339 -148.45509233 151.96264725 -136.80737305 139.67651367 C-125.52138095 127.77262619 -114.1681578 115.93977183 -102.71850586 104.19311523 C-102.00841222 103.46455104 -101.29831858 102.73598684 -100.56670695 101.98534494 C-97.00239484 98.32924578 -93.43660451 94.67459269 -89.86991107 91.02081668 C-82.95270703 83.93450261 -76.04246101 76.84141991 -69.1363678 69.74427795 C-68.13680578 68.71714818 -68.13680578 68.71714818 -67.1170506 67.66926832 C-57.27012774 57.54722094 -47.4726675 47.37903068 -37.70970154 37.17601013 C-37.09876149 36.53783203 -36.48782144 35.89965392 -35.85836805 35.24213709 C-30.09244247 29.21900523 -24.33007232 23.19259873 -18.58453881 17.15000558 C-16.55014361 15.01212752 -14.51183063 12.87801464 -12.47259326 10.74475593 C-11.08862404 9.29396501 -9.71025503 7.83783831 -8.33204216 6.38157791 C-7.11312447 5.10758018 -7.11312447 5.10758018 -5.86958218 3.80784512 C-4.81337851 2.6968371 -4.81337851 2.6968371 -3.7358374 1.56338447 C-2 0 -2 0 0 0 Z " fill="#A16ABE" transform="translate(318,68)"/>
<path d="M0 0 C5.77817129 4.8025478 11.10167775 9.95606304 16.40625 15.2734375 C17.28978149 16.15601227 18.17331299 17.03858704 19.08361816 17.94790649 C21.41719483 20.28063292 23.7483335 22.61576341 26.07867432 24.95172119 C27.4973624 26.37235878 28.91798047 27.79103541 30.33935547 29.20898438 C33.09352803 31.956942 35.8441726 34.70838274 38.59375 37.4609375 C39.43248657 38.29764984 40.27122314 39.13436218 41.13537598 39.99642944 C46.95162194 45.83565784 52.38477228 51.88844522 57.68643188 58.19415283 C66.2307934 68.33899599 75.00868801 78.24371489 84.0625 87.9375 C84.77171978 88.69754711 85.48093956 89.45759422 86.21165085 90.24067307 C103.8896158 109.03451298 119.2371483 124.02306023 146.02539062 125.03955078 C158.07551217 124.40344916 170.03726282 122.58207893 182 121 C182 145.75 182 170.5 182 196 C157.58 196 133.16 196 108 196 C109.02222656 185.56246094 110.04445313 175.12492187 111.09765625 164.37109375 C111.28396252 157.67046984 111.43158073 151.33639865 110.82080078 144.71435547 C110.74600125 143.90297048 110.67120171 143.0915855 110.59413552 142.25561309 C108.31578333 121.13186287 96.37084221 107.43029375 81.74609375 92.91015625 C81.11627358 92.28484119 80.48645341 91.65952613 79.83754778 91.01526213 C72.02011904 83.31295911 63.92478854 75.94031308 55.70902979 68.66716707 C48.620705 62.37804478 41.74429118 55.87372097 34.87254989 49.3498975 C20.79450525 35.99340062 6.48889274 22.90901703 -8 10 C-5.95933017 5.73384496 -3.41446998 3.26601476 0 0 Z " fill="#C989CF" transform="translate(211,192)"/>
<path d="M0 0 C24.75 0 49.5 0 75 0 C75 24.75 75 49.5 75 75 C63.924375 75.185625 52.84875 75.37125 41.4375 75.5625 C36.20797485 75.65446655 36.20797485 75.65446655 30.87280273 75.74829102 C26.5880127 75.81628418 26.5880127 75.81628418 24.57679749 75.8467865 C23.18373781 75.86895707 21.79071164 75.89330251 20.39772034 75.91941833 C18.2774839 75.95873392 16.15724081 75.99096421 14.03686523 76.02172852 C12.84439682 76.04171402 11.65192841 76.06169952 10.42332458 76.08229065 C6.87749136 75.99705511 3.49801383 75.56998197 0 75 C-1.30390957 67.20288419 -1.02933547 59.43581246 -0.87890625 51.5625 C-0.85824097 50.25345703 -0.83757568 48.94441406 -0.81628418 47.59570312 C-0.73783371 42.7303658 -0.64959094 37.86519033 -0.5625 33 C-0.2840625 16.665 -0.2840625 16.665 0 0 Z " fill="#CA89CF" transform="translate(318,0)"/>
<path d="M0 0 C16.83 0 33.66 0 51 0 C51 16.83 51 33.66 51 51 C34.17 51 17.34 51 0 51 C0 34.17 0 17.34 0 0 Z " fill="#EAE1F1" transform="translate(330,325)"/>
<path d="M0 0 C16.83 0 33.66 0 51 0 C51 16.83 51 33.66 51 51 C34.17 51 17.34 51 0 51 C0 34.17 0 17.34 0 0 Z " fill="#EAE1F1" transform="translate(17,325)"/>
<path d="M0 0 C16.83 0 33.66 0 51 0 C51 16.83 51 33.66 51 51 C34.17 51 17.34 51 0 51 C0 34.17 0 17.34 0 0 Z " fill="#EAE1F1" transform="translate(330,12)"/>
</svg>
