<svg data-v-423bf9ae="" xmlns="http://www.w3.org/2000/svg" viewBox="0 0 529 90" class="iconLeft"><!----><!----><!----><g data-v-423bf9ae="" id="b428e7db-0f6a-4e92-bc8b-ff0e28f90d1d" fill="black" transform="matrix(6.03621768951416,0,0,6.03621768951416,102.51508331298828,-1.9014084339141846)"><path d="M1.24 12.61L1.24 2.95L3.58 2.95L6.15 9.82L8.71 2.95L11.05 2.95L11.05 12.61L9.38 12.61L9.38 5.38L6.99 11.76L5.30 11.76L2.91 5.38L2.91 12.61L1.24 12.61ZM13.24 4.48L13.24 2.95L14.98 2.95L14.98 4.48L13.24 4.48ZM13.28 12.61L13.28 5.78L14.94 5.78L14.94 12.61L13.28 12.61ZM16.92 12.61L16.92 5.78L18.57 5.78L18.57 6.57Q18.96 6.10 19.50 5.87Q20.04 5.63 20.59 5.63L20.59 5.63Q21.44 5.63 21.99 6.04Q22.55 6.44 22.81 7.09Q23.06 7.75 23.06 8.50L23.06 8.50L23.06 12.61L21.42 12.61L21.42 8.72Q21.42 8.03 21.08 7.60Q20.73 7.17 20.11 7.17L20.11 7.17Q19.38 7.17 18.98 7.59Q18.57 8.00 18.57 8.87L18.57 8.87L18.57 12.61L16.92 12.61ZM29.17 2.95L30.86 2.95L30.86 12.61L29.31 12.61L29.24 11.84Q28.90 12.30 28.38 12.52Q27.86 12.74 27.25 12.74L27.25 12.74Q26.33 12.74 25.66 12.26Q24.99 11.78 24.64 10.97Q24.29 10.16 24.29 9.19L24.29 9.19Q24.29 8.22 24.64 7.41Q24.99 6.60 25.65 6.12Q26.31 5.63 27.23 5.63L27.23 5.63Q27.80 5.63 28.32 5.84Q28.83 6.04 29.17 6.46L29.17 6.46L29.17 2.95ZM27.66 11.23Q28.49 11.23 28.90 10.67Q29.31 10.11 29.31 9.19L29.31 9.19Q29.31 8.27 28.90 7.71Q28.48 7.14 27.66 7.14L27.66 7.14Q26.84 7.14 26.41 7.71Q25.99 8.29 25.99 9.19L25.99 9.19Q25.99 10.10 26.41 10.66Q26.83 11.23 27.66 11.23L27.66 11.23ZM35.88 12.71Q34.99 12.71 34.20 12.39Q33.41 12.07 32.87 11.43Q32.33 10.79 32.18 9.88L32.18 9.88L33.90 9.44Q33.99 10.30 34.54 10.74Q35.09 11.18 35.90 11.18L35.90 11.18Q36.40 11.18 36.76 11.02Q37.13 10.86 37.31 10.58Q37.50 10.29 37.50 9.95L37.50 9.95Q37.50 9.53 37.24 9.24Q36.98 8.94 36.60 8.75Q36.22 8.56 35.55 8.29L35.55 8.29Q34.67 7.94 34.13 7.65Q33.59 7.35 33.21 6.82Q32.82 6.28 32.82 5.47L32.82 5.47Q32.82 4.64 33.23 4.04Q33.63 3.43 34.32 3.12Q35.01 2.80 35.83 2.80L35.83 2.80Q36.76 2.80 37.53 3.22Q38.29 3.64 38.77 4.50L38.77 4.50L37.33 5.38Q37.08 4.89 36.67 4.62Q36.26 4.35 35.77 4.35L35.77 4.35Q35.43 4.35 35.15 4.48Q34.88 4.61 34.72 4.84Q34.56 5.08 34.56 5.38L34.56 5.38Q34.56 5.75 34.79 6.01Q35.03 6.27 35.40 6.45Q35.77 6.62 36.40 6.87L36.40 6.87Q37.30 7.22 37.86 7.53Q38.42 7.83 38.83 8.39Q39.23 8.94 39.23 9.79L39.23 9.79Q39.23 10.68 38.78 11.34Q38.34 12.00 37.57 12.36Q36.80 12.71 35.88 12.71L35.88 12.71ZM43.29 12.74Q42.22 12.74 41.47 12.25Q40.72 11.76 40.35 10.95Q39.98 10.14 39.98 9.20L39.98 9.20Q39.98 8.27 40.35 7.45Q40.72 6.64 41.46 6.14Q42.21 5.63 43.27 5.63L43.27 5.63Q44.31 5.63 45.08 6.14Q45.84 6.65 46.22 7.65L46.22 7.65L44.64 8.26Q44.50 7.76 44.14 7.45Q43.77 7.14 43.27 7.14L43.27 7.14Q42.72 7.14 42.37 7.43Q42.01 7.72 41.84 8.19Q41.67 8.66 41.67 9.20L41.67 9.20Q41.67 9.75 41.84 10.21Q42 10.67 42.36 10.95Q42.72 11.23 43.27 11.23L43.27 11.23Q43.76 11.23 44.13 10.93Q44.50 10.64 44.64 10.14L44.64 10.14L46.16 10.72Q45.81 11.68 45.06 12.21Q44.30 12.74 43.29 12.74L43.29 12.74ZM47.44 12.61L47.44 5.78L49.07 5.78L49.07 6.92Q49.28 6.32 49.79 5.98Q50.31 5.63 50.90 5.63L50.90 5.63Q51.25 5.63 51.58 5.76Q51.91 5.88 52.15 6.13L52.15 6.13L51.39 7.49Q51.04 7.26 50.65 7.26L50.65 7.26Q50.24 7.26 49.87 7.52Q49.51 7.79 49.28 8.34Q49.05 8.89 49.05 9.72L49.05 9.72L49.05 12.61L47.44 12.61ZM53.01 4.48L53.01 2.95L54.75 2.95L54.75 4.48L53.01 4.48ZM53.05 12.61L53.05 5.78L54.71 5.78L54.71 12.61L53.05 12.61ZM60.38 12.74Q59.80 12.74 59.28 12.54Q58.77 12.34 58.43 11.92L58.43 11.92L58.43 12.61L56.70 12.61L56.70 2.95L58.43 2.95L58.43 6.46Q58.77 6.04 59.27 5.83Q59.77 5.63 60.35 5.63L60.35 5.63Q61.28 5.63 61.94 6.11Q62.61 6.60 62.96 7.41Q63.30 8.22 63.30 9.19L63.30 9.19Q63.30 10.15 62.96 10.96Q62.61 11.78 61.95 12.26Q61.29 12.74 60.38 12.74L60.38 12.74ZM59.96 11.20Q60.79 11.20 61.20 10.65Q61.62 10.09 61.62 9.19L61.62 9.19Q61.62 8.29 61.20 7.71Q60.78 7.14 59.96 7.14L59.96 7.14Q59.13 7.14 58.70 7.71Q58.28 8.28 58.28 9.19L58.28 9.19Q58.28 10.09 58.70 10.65Q59.13 11.20 59.96 11.20L59.96 11.20ZM67.57 12.74Q66.45 12.74 65.67 12.26Q64.89 11.77 64.50 10.97Q64.11 10.17 64.11 9.21L64.11 9.21Q64.11 8.29 64.48 7.46Q64.85 6.64 65.61 6.14Q66.36 5.63 67.46 5.63L67.46 5.63Q68.58 5.63 69.30 6.15Q70.01 6.67 70.32 7.45Q70.63 8.23 70.63 9.08L70.63 9.08Q70.63 9.28 70.61 9.47Q70.59 9.66 70.57 9.73L70.57 9.73L65.88 9.73Q66.12 11.23 67.59 11.23L67.59 11.23Q68.07 11.23 68.48 11.06Q68.88 10.89 69.23 10.51L69.23 10.51L70.38 11.51Q69.82 12.13 69.13 12.44Q68.43 12.74 67.57 12.74L67.57 12.74ZM65.88 8.53L68.99 8.53Q68.91 7.81 68.51 7.42Q68.11 7.03 67.45 7.03L67.45 7.03Q66.15 7.03 65.88 8.53L65.88 8.53Z"></path></g><!----><g data-v-423bf9ae="" id="89238ccb-3c16-4279-8e7a-e7d0648c378b" transform="matrix(2.8125,0,0,2.8125,0,0)" stroke="none" fill="black"><path d="M15.965 16.258l.707-.707 10.39 10.39-.707.707z"></path><path d="M4.935 26.357L26.018 5.274l.707.707L5.642 27.065z"></path><path d="M31 1v4.194h-4.194V1H31m1-1h-6.194v6.194H32V0zM31 26.806V31h-4.194v-4.194H31m1-1h-6.194V32H32v-6.194zM5.194 26.806V31H1v-4.194h4.194m1-1H0V32h6.194v-6.194z"></path></g><!----></svg>